<?xml version="1.0" encoding="UTF-8" standalone="no"?>
<!DOCTYPE svg PUBLIC "-//W3C//DTD SVG 1.1//EN" "http://www.w3.org/Graphics/SVG/1.1/DTD/svg11.dtd">
<svg width="100%" height="100%" viewBox="0 0 480 480" version="1.1" xmlns="http://www.w3.org/2000/svg" xmlns:xlink="http://www.w3.org/1999/xlink" xml:space="preserve" xmlns:serif="http://www.serif.com/" style="fill-rule:evenodd;clip-rule:evenodd;stroke-linejoin:round;stroke-miterlimit:2;">
    <g id="path84" transform="matrix(1.52301,0,0,1.52301,-60.6537,-108.188)">
        <path d="M197.699,107.087C197.582,107.082 197.465,107.079 197.348,107.078L197.699,107.087L197.844,107.092L197.602,107.088C197.718,107.089 197.834,107.092 197.949,107.097C198.341,107.118 198.729,107.155 199.113,107.208C198.975,107.194 197.925,107.089 197.318,107.079L197.348,107.078L197.222,107.078L197.318,107.079L197.04,107.088C194.776,107.118 192.516,107.2 190.259,107.351C187.774,101.96 185.295,97.567 182.918,95.079C177.627,89.542 171.709,88.265 165.891,89.725C151.117,93.432 136.313,98.589 122.612,106.373C116.539,109.823 112.512,115.935 111.537,123.831C111.038,127.867 111.43,132.51 112.77,137.218C110.496,138.851 108.263,140.564 106.136,142.485C103.992,144.344 101.785,146.222 99.615,148.157C95.662,146.243 91.847,145.033 88.456,144.696C80.883,143.943 74.377,146.307 69.393,152.361C60.987,162.571 48.47,177.762 43.818,186.194C41.154,191.022 40.381,195.143 40.435,197.645C40.563,203.484 42.371,208.001 45.547,212.45C47.394,215.039 50.079,217.618 53.026,221.356L53.039,235.415C53.039,235.415 53.039,252.792 53.039,252.792C53.039,253.384 53.077,253.967 53.151,254.538C53.229,260.614 53.35,267.902 53.35,268.702C53.35,299.814 70.305,323.192 98.649,338.49C123.909,352.123 158.788,359.152 197.504,359.306L197.789,359.306C236.506,359.152 271.38,352.123 296.635,338.489C324.973,323.191 341.923,299.814 341.923,268.702C341.923,267.533 341.8,253.153 341.822,247.888L341.37,248.339C341.391,248.232 341.411,248.124 341.43,248.016L341.613,247.834L341.613,246.413C341.626,246.166 341.633,245.919 341.633,245.672L341.618,221.106C346.41,214.035 351.236,206.167 352.853,199.445C354.353,193.215 353.749,187.479 351.175,182.534C343.005,166.835 340.928,164.718 330.227,151.72C327.708,148.659 322.434,145.37 314.749,145.135C309.419,144.972 302.268,146.224 295.642,148.71C293.28,146.582 290.867,144.532 288.464,142.451C285.935,140.172 283.273,138.196 280.571,136.299C282.877,123.126 278.647,111.958 269.235,106.611C255.361,98.73 246.677,95.022 231.712,91.268C227.065,90.103 221.609,90.736 216.164,94.47C212.591,96.92 208.556,101.443 205.005,107.395C202.721,107.229 200.435,107.135 198.147,107.097L197.699,107.087ZM66.879,266.077L66.711,266.245L66.692,266.356L66.88,266.166L66.879,266.077ZM328.313,261.343L330.676,258.99L330.566,259.011L330.407,259.04L328.53,260.916C328.432,261.093 328.358,261.224 328.312,261.304L328.313,261.343ZM66.585,230.203L66.597,230.191L66.597,230.159L66.585,230.203ZM210.941,121.709L210.941,121.709C210.959,121.476 210.971,121.241 210.977,121.004C210.971,121.241 210.959,121.476 210.941,121.709ZM183.891,121.679C183.869,121.342 183.857,120.996 183.857,120.64C183.857,120.41 183.928,120.284 184.058,120.247C183.802,120.195 183.66,120.313 183.66,120.64C183.66,121.006 183.672,121.362 183.695,121.709L183.891,121.679ZM210.758,121.487L210.744,121.679L210.671,121.667L210.716,121.577C210.73,121.547 210.744,121.517 210.758,121.487ZM185.946,121.386C185.056,120.603 184.377,120.156 184.058,120.247C184.425,120.322 185.026,120.748 185.774,121.408L185.946,121.386ZM197.42,120.649C200.042,120.684 197.875,107.087 197.32,107.087C197.238,107.087 197.143,107.089 197.04,107.094L197.131,120.651L197.222,120.649L197.222,120.64C197.254,120.64 197.288,120.649 197.32,120.649C197.35,120.649 197.384,120.64 197.42,120.64L197.42,120.649ZM210.981,120.845L210.978,120.978L210.981,120.845ZM210.982,120.685L210.981,120.789L210.982,120.685Z" style="fill:white;fill-rule:nonzero;"/>
    </g>
    <g id="path841" serif:id="path84" transform="matrix(1.52301,0,0,1.52301,-60.6537,-108.188)">
        <path d="M197.222,119.526L197.222,120.649L197.215,120.649L197.207,119.52C192.277,119.587 187.365,119.914 182.469,120.77C179.967,114.461 177.664,108.742 175.276,105.337C173.294,102.509 171.136,101.228 168.917,101.785C155.213,105.223 141.463,109.963 128.754,117.184C125.959,118.772 124.326,121.721 123.877,125.355C123.281,130.178 124.791,136.243 128.256,141.582C123.595,144.883 118.759,147.827 114.429,151.749C109.997,155.598 105.479,159.291 101.413,163.707C97.347,160.76 93.266,158.463 89.612,157.507C85.356,156.394 81.641,157.046 78.992,160.264C72.046,168.701 62.052,180.684 56.718,188.882C55.307,191.05 54.217,192.964 53.575,194.49C53.083,195.66 52.85,196.641 52.866,197.373C52.95,201.222 54.528,203.946 56.985,206.933C59.247,209.683 62.283,212.687 65.456,217.253L65.473,235.409C65.473,235.409 65.473,252.792 65.473,252.792C65.473,252.954 65.507,253.108 65.569,253.248C65.646,259.572 65.783,267.843 65.783,268.702C65.783,295.053 80.548,314.591 104.555,327.548C128.305,340.367 161.151,346.728 197.553,346.872L197.74,346.872C234.142,346.728 266.983,340.367 290.729,327.548C314.731,314.591 329.49,295.053 329.49,268.702C329.49,267.53 329.367,253.115 329.388,247.838L328.259,248.962C328.259,248.962 328.355,248.793 328.467,248.546L329.179,247.834L329.179,245.891C329.193,245.821 329.199,245.751 329.199,245.679L329.183,217.252C333.073,211.648 337.628,205.271 339.838,199.482C341.425,195.324 341.795,191.443 340.146,188.274C332.544,173.667 330.584,171.716 320.628,159.622C319.641,158.423 317.379,157.655 314.369,157.563C308.406,157.381 299.338,159.562 293.233,163.719C289.166,159.298 284.651,155.601 280.209,151.75C275.828,147.78 270.922,144.813 266.218,141.463C268.184,136.538 269.195,131.771 268.945,127.73C268.666,123.197 266.828,119.544 263.094,117.422C250.368,110.194 242.413,106.771 228.687,103.328C226.543,102.791 223.982,103.787 221.425,106.153C218.167,109.167 214.798,114.421 212.173,120.771C207.324,119.923 202.454,119.593 197.578,119.523C197.527,119.515 197.474,119.511 197.42,119.511C197.392,119.511 197.355,119.514 197.319,119.517C197.284,119.514 197.248,119.511 197.222,119.511L197.222,119.526L197.21,119.527L197.222,119.526ZM66.692,253.922L66.706,253.908L66.706,253.9L66.692,253.922ZM66.585,217.77L66.586,217.769L66.586,217.768L66.585,217.77ZM198.548,120.669L198.548,120.669L198.549,120.657L198.548,120.648L198.548,120.669ZM196.223,120.666C196.144,120.602 196.093,120.584 196.093,120.64L196.094,120.669L196.223,120.666ZM196.417,120.663C196.34,120.601 196.291,120.585 196.291,120.64L196.291,120.665L196.417,120.663Z" style="fill:url(#_Radial1);fill-rule:nonzero;"/>
    </g>
    <g id="path842" serif:id="path84" transform="matrix(1.52301,0,0,1.52301,-60.6537,-108.188)">
        <path d="M65.473,236.018L65.473,252.792C65.473,252.954 65.507,253.108 65.569,253.248C65.646,259.572 65.783,267.843 65.783,268.702C65.783,295.053 80.548,314.591 104.555,327.548C128.305,340.367 161.151,346.728 197.553,346.872L197.74,346.872C234.142,346.728 266.983,340.367 290.729,327.548C314.731,314.591 329.49,295.053 329.49,268.702C329.49,267.53 329.367,253.115 329.388,247.838L328.259,248.962C328.259,248.962 328.355,248.793 328.467,248.546L329.179,247.834L329.179,246.297C329.276,246.148 329.338,245.973 329.354,245.785C335.157,178.82 269.652,148.177 202.296,148.414C162.033,148.556 121.178,159.722 94.736,180.579C76.947,194.61 65.655,213.018 65.294,235.39C65.29,235.614 65.353,235.832 65.473,236.018ZM66.692,253.922L66.706,253.908L66.706,253.9L66.692,253.922Z" style="fill:url(#_Radial2);fill-rule:nonzero;"/>
    </g>
    <g id="path104" transform="matrix(2.30391,-7.15916e-18,7.15916e-18,-2.36237,249.11,302.786)">
        <path d="M0,0C0,-12.855 10.416,-23.269 23.269,-23.269C36.113,-23.269 46.531,-12.855 46.531,0C46.531,12.847 36.113,23.255 23.269,23.255C10.416,23.255 0,12.847 0,0" style="fill:url(#_Radial3);fill-rule:nonzero;"/>
    </g>
    <g id="path108" transform="matrix(1.6851,1.07482e-17,-1.07482e-17,-1.59734,265.613,309.536)">
        <path d="M0,0C0,-8.527 6.909,-15.438 15.436,-15.438C23.971,-15.438 30.88,-8.527 30.88,0C30.88,8.527 23.971,15.444 15.436,15.444C6.909,15.444 0,8.527 0,0" style="fill:rgb(65,64,66);fill-rule:nonzero;"/>
    </g>
    <g id="path1041" serif:id="path104" transform="matrix(2.30391,-7.15916e-18,7.15916e-18,-2.36237,121.428,300.042)">
        <path d="M0,0C0,-12.855 10.416,-23.269 23.269,-23.269C36.113,-23.269 46.531,-12.855 46.531,0C46.531,12.847 36.113,23.255 23.269,23.255C10.416,23.255 0,12.847 0,0" style="fill:url(#_Radial4);fill-rule:nonzero;"/>
    </g>
    <g id="path1081" serif:id="path108" transform="matrix(1.72863,1.50658e-17,-1.50658e-17,-1.60561,164.31,299.14)">
        <path d="M0,0C0,-8.527 6.909,-15.438 15.436,-15.438C23.971,-15.438 30.88,-8.527 30.88,0C30.88,8.527 23.971,15.444 15.436,15.444C6.909,15.444 0,8.527 0,0" style="fill:rgb(65,64,66);fill-rule:nonzero;"/>
    </g>
    <g id="path1042" serif:id="path104" transform="matrix(0.212104,-6.59091e-19,6.59091e-19,-0.217486,198.784,289.431)">
        <path d="M0,0C0,-12.855 10.416,-23.269 23.269,-23.269C36.113,-23.269 46.531,-12.855 46.531,0C46.531,12.847 36.113,23.255 23.269,23.255C10.416,23.255 0,12.847 0,0" style="fill:white;fill-rule:nonzero;"/>
    </g>
    <g id="path1043" serif:id="path104" transform="matrix(0.212104,-6.59091e-19,6.59091e-19,-0.217486,297.95,297.896)">
        <path d="M0,0C0,-12.855 10.416,-23.269 23.269,-23.269C36.113,-23.269 46.531,-12.855 46.531,0C46.531,12.847 36.113,23.255 23.269,23.255C10.416,23.255 0,12.847 0,0" style="fill:white;fill-rule:nonzero;"/>
    </g>
    <defs>
        <radialGradient id="_Radial1" cx="0" cy="0" r="1" gradientUnits="userSpaceOnUse" gradientTransform="matrix(286.103,0,0,242.96,53.9939,224.263)"><stop offset="0" style="stop-color:rgb(9,110,199);stop-opacity:1"/><stop offset="1" style="stop-color:rgb(0,97,186);stop-opacity:1"/></radialGradient>
        <radialGradient id="_Radial2" cx="0" cy="0" r="1" gradientUnits="userSpaceOnUse" gradientTransform="matrix(262.066,0,0,136.024,66.2952,277.731)"><stop offset="0" style="stop-color:rgb(0,168,255);stop-opacity:1"/><stop offset="1" style="stop-color:rgb(0,98,189);stop-opacity:1"/></radialGradient>
        <radialGradient id="_Radial3" cx="0" cy="0" r="1" gradientUnits="userSpaceOnUse" gradientTransform="matrix(46.5312,0,0,46.5248,1.06667e-05,-0.00693333)"><stop offset="0" style="stop-color:white;stop-opacity:1"/><stop offset="0.67" style="stop-color:rgb(247,247,247);stop-opacity:1"/><stop offset="0.85" style="stop-color:rgb(225,225,225);stop-opacity:1"/><stop offset="1" style="stop-color:rgb(198,198,198);stop-opacity:1"/></radialGradient>
        <radialGradient id="_Radial4" cx="0" cy="0" r="1" gradientUnits="userSpaceOnUse" gradientTransform="matrix(46.5312,0,0,46.5248,1.06667e-05,-0.00693333)"><stop offset="0" style="stop-color:white;stop-opacity:1"/><stop offset="0.67" style="stop-color:rgb(247,247,247);stop-opacity:1"/><stop offset="0.85" style="stop-color:rgb(225,225,225);stop-opacity:1"/><stop offset="1" style="stop-color:rgb(198,198,198);stop-opacity:1"/></radialGradient>
    </defs>
</svg>
